<?xml version="1.0" encoding="UTF-8" standalone="no"?>
<!-- Created with Inkscape (http://www.inkscape.org/) -->

<svg
   xmlns:dc="http://purl.org/dc/elements/1.1/"
   xmlns:cc="http://creativecommons.org/ns#"
   xmlns:rdf="http://www.w3.org/1999/02/22-rdf-syntax-ns#"
   xmlns:svg="http://www.w3.org/2000/svg"
   xmlns="http://www.w3.org/2000/svg"
   xmlns:sodipodi="http://sodipodi.sourceforge.net/DTD/sodipodi-0.dtd"
   xmlns:inkscape="http://www.inkscape.org/namespaces/inkscape"
   width="210mm"
   height="297mm"
   viewBox="0 0 744.09448819 1052.3622047"
   id="svg2"
   version="1.1"
   inkscape:version="0.91 r13725"
   sodipodi:docname="rubber-duck.svg">
  <defs
     id="defs4" />
  <sodipodi:namedview
     id="base"
     pagecolor="#ffffff"
     bordercolor="#666666"
     borderopacity="1.0"
     inkscape:pageopacity="0.0"
     inkscape:pageshadow="2"
     inkscape:zoom="2.8"
     inkscape:cx="209.89137"
     inkscape:cy="643.96794"
     inkscape:document-units="px"
     inkscape:current-layer="layer1"
     showgrid="false"
     inkscape:window-width="1366"
     inkscape:window-height="702"
     inkscape:window-x="0"
     inkscape:window-y="27"
     inkscape:window-maximized="1" />
  <metadata
     id="metadata7">
    <rdf:RDF>
      <cc:Work
         rdf:about="">
        <dc:format>image/svg+xml</dc:format>
        <dc:type
           rdf:resource="http://purl.org/dc/dcmitype/StillImage" />
        <dc:title></dc:title>
      </cc:Work>
    </rdf:RDF>
  </metadata>
  <g
     inkscape:label="Layer 1"
     inkscape:groupmode="layer"
     id="layer1">
    <path
       style="fill:#ffff00;fill-rule:evenodd;stroke:#000000;stroke-width:1px;stroke-linecap:butt;stroke-linejoin:miter;stroke-opacity:1"
       d="m 280.71428,433.43364 c -0.87708,20.25502 -4.02255,32.1475 -18.65993,45.25832 -14.12869,12.65517 -125.03157,21.41019 -139.19721,5.09882 -16.1284,-18.57142 -25.35715,-47.6566 -8.92858,-55 7.66995,-3.42839 35.89025,-11.69697 32.33147,-26.75204 -1.88668,-7.98141 -10.10117,-24.34109 -18.22478,-25.13995 -51.569795,-5.07127 -8.00064,-9.20375 -19.60172,-12.03589 -3.37714,-0.82445 -8.872918,-10.59179 -4.85623,-11.40007 4.55659,-0.91692 26.31075,8.37326 30.09257,5.28944 13.1741,-10.74256 16.13617,-22.62926 27.82237,-25.09748 18.76333,-3.96297 49.44197,2.90219 49.79483,34.91109 0.0982,8.90791 -9.41603,29.28445 -30.15444,41.87893 -15.07813,9.15698 61.91009,14.33434 71.01022,12.98882 16.33969,-2.41593 20.08918,-18.22738 23.29478,-19.58284 2.48093,-1.04903 6.21154,7.99293 5.27665,29.58285 z"
       id="path3336"
       inkscape:connector-curvature="0"
       sodipodi:nodetypes="sssssssssssssss" />
  </g>
</svg>
